<svg width="156" height="191" viewBox="0 0 156 191" fill="none" xmlns="http://www.w3.org/2000/svg">
<rect width="156" height="191" rx="15" fill="white"/>
<path d="M16.7988 16.332C17.3438 16.332 17.7832 15.9336 17.7832 15.4062C17.7832 14.8672 17.3438 14.4746 16.7988 14.4746C16.2539 14.4746 15.8145 14.8672 15.8145 15.4062C15.8145 15.9336 16.2539 16.332 16.7988 16.332ZM17.8711 17.0996L15.2695 17.416V17.6855L15.5684 17.7793C15.8965 17.8906 15.9434 17.9727 15.9434 18.3535V22.0684C15.9434 22.4902 15.8379 22.6133 15.2695 22.7129V23H18.5449V22.7129C17.9766 22.6133 17.8711 22.4902 17.8711 22.0684V17.0996ZM21.6328 17.0996L19.043 17.416V17.6855L19.3418 17.7793C19.6699 17.8906 19.7168 17.9727 19.7168 18.3535V22.0684C19.7168 22.4902 19.6113 22.6133 19.043 22.7129V23H22.2305V22.7129C21.7207 22.625 21.6445 22.5137 21.6445 22.1035V18.4062C21.8496 18.0605 22.1777 17.8672 22.6289 17.8672C23.2441 17.8672 23.5957 18.2539 23.5957 19.0332V22.1035C23.5957 22.5137 23.5254 22.6191 23.0156 22.7129V23H26.1094V22.7129C25.5996 22.6191 25.5234 22.5137 25.5234 22.1035V18.8691C25.5234 18.6992 25.5117 18.5352 25.4824 18.3887C25.6875 18.0488 26.0391 17.8672 26.4961 17.8672C27.1172 17.8672 27.4805 18.2539 27.4805 19.0332V22.1035C27.4805 22.5137 27.4043 22.6191 26.8945 22.7129V23H30.082V22.7129C29.5137 22.6133 29.4082 22.4902 29.4082 22.0684V18.9219C29.4082 17.6855 28.6348 17.0645 27.4746 17.0645C26.5078 17.0645 25.7578 17.4922 25.4355 18.207C25.207 17.4512 24.5625 17.0645 23.6367 17.0645C22.6816 17.0645 21.9551 17.4922 21.6328 18.1719V17.0996ZM37.3711 20.0352C37.3711 18.1719 36.2988 17.0645 34.9863 17.0645C34.0723 17.0645 33.3633 17.5332 33.0938 18.1953V17.0996L30.5098 17.416V17.6855L30.8086 17.7793C31.1309 17.8906 31.1836 17.9727 31.1836 18.3535V24.7754C31.1836 25.1855 31.084 25.3145 30.5098 25.4082V25.6953H33.8613V25.4082C33.2109 25.3027 33.1055 25.1797 33.1055 24.7168V22.3848C33.3457 22.8125 33.9492 23.1172 34.6465 23.1172C36.1172 23.1172 37.3711 21.9805 37.3711 20.0352ZM35.3848 20.2109C35.3848 21.6582 34.8398 22.5488 34.0137 22.5488C33.5977 22.5488 33.2402 22.3262 33.1055 22.0391V18.4297C33.2871 18.0781 33.6094 17.8672 34.0547 17.8672C34.8457 17.8672 35.3848 18.7637 35.3848 20.2109ZM41.4785 23.1172C43.3652 23.1172 44.7773 21.8633 44.7773 20.0645C44.7773 18.2305 43.377 17.0645 41.502 17.0645C39.6211 17.0645 38.209 18.3125 38.209 20.1113C38.209 21.9512 39.6094 23.1172 41.4785 23.1172ZM41.5195 22.7305C40.7344 22.7305 40.248 21.7227 40.248 20.0469C40.248 18.4297 40.6699 17.4512 41.4668 17.4512C42.2461 17.4512 42.7324 18.4531 42.7324 20.1289C42.7324 21.7461 42.3105 22.7305 41.5195 22.7305ZM48.0586 17.0996L45.4688 17.416V17.6855L45.7676 17.7793C46.0898 17.8906 46.1426 17.9727 46.1426 18.3535V22.0801C46.1426 22.4902 46.0488 22.6191 45.4688 22.7129V23H48.8203V22.7129C48.1758 22.6074 48.0703 22.4844 48.0703 22.0215V18.9512C48.3281 18.7109 48.9199 18.5586 49.5 18.5586C49.834 18.5586 50.1738 18.6113 50.3438 18.6758C50.4141 18.5352 50.4785 18.2891 50.4785 18.0371C50.4785 17.5098 50.2266 17.0879 49.6992 17.0879C49.1074 17.0879 48.6152 17.5859 48.0527 18.752L48.0586 17.0996ZM51.5684 21.2832C51.5684 22.5723 52.3242 23.1172 53.3262 23.1172C54.0879 23.1172 54.7207 22.7891 54.9609 22.4258V22.1387C54.8145 22.2734 54.5742 22.3672 54.3164 22.3672C53.8184 22.3672 53.4844 22.0684 53.4844 21.2949V17.627L54.8906 17.7148V17.1758L53.4844 17.2637V15.7402H53.2617L50.9062 17.4629V17.7148H51.5684V21.2832ZM57.123 23.1172C58.084 23.1172 58.8398 22.7188 59.0684 22.1211C59.1797 22.7598 59.8066 23.0879 60.5098 23.0879C61.0195 23.0879 61.4648 22.9531 61.7051 22.7832V22.5137C61.6465 22.5312 61.5645 22.543 61.4766 22.543C61.1543 22.543 60.9141 22.3379 60.9141 21.8516V19.0449C60.9141 17.6738 59.9238 17.0645 58.2715 17.0645C56.6543 17.0645 55.6523 17.7207 55.6523 18.5293C55.6523 18.998 56.0332 19.3438 56.5137 19.3438C57 19.3438 57.3809 18.9805 57.3809 18.5117C57.3809 18.1074 57.0996 17.7852 56.7305 17.709C56.9883 17.5918 57.2871 17.5273 57.6094 17.5273C58.5117 17.5273 59.0332 17.9434 59.0332 19.0156V19.6309L57.8848 19.8652C56.0918 20.2227 55.418 20.8203 55.418 21.6992C55.418 22.5488 56.1152 23.1172 57.123 23.1172ZM57.3105 21.4004C57.3105 20.7266 57.6504 20.2812 58.623 20.0527L59.0332 19.959V21.8926C58.875 22.209 58.5645 22.3848 58.1602 22.3848C57.6797 22.3848 57.3105 22.0391 57.3105 21.4004ZM64.6523 17.0996L62.0625 17.416V17.6855L62.3613 17.7793C62.6895 17.8906 62.7363 17.9727 62.7363 18.3535V22.0684C62.7363 22.4902 62.6309 22.6133 62.0625 22.7129V23H65.25V22.7129C64.7402 22.6191 64.6641 22.5137 64.6641 22.1035V18.418C64.8398 18.0898 65.209 17.8672 65.6895 17.8672C66.3516 17.8672 66.7383 18.2598 66.7383 19.0449V22.1035C66.7383 22.5137 66.6504 22.625 66.1523 22.7129V23H69.3398V22.7129C68.7598 22.6133 68.6602 22.4902 68.6602 22.0684V18.9336C68.6602 17.668 67.8574 17.0645 66.668 17.0645C65.6719 17.0645 64.9453 17.5215 64.6523 18.1895V17.0996ZM70.4355 21.2832C70.4355 22.5723 71.1914 23.1172 72.1934 23.1172C72.9551 23.1172 73.5879 22.7891 73.8281 22.4258V22.1387C73.6816 22.2734 73.4414 22.3672 73.1836 22.3672C72.6855 22.3672 72.3516 22.0684 72.3516 21.2949V17.627L73.7578 17.7148V17.1758L72.3516 17.2637V15.7402H72.1289L69.7734 17.4629V17.7148H70.4355V21.2832ZM17.9941 37.123C19.0957 37.123 19.8867 36.6602 20.7246 35.7578L21.9141 37H24.7148V36.7246C24.3047 36.6016 23.9121 36.3203 23.0273 35.4004L21.9375 34.2637L22.7402 33.209C23.5137 32.2129 23.8125 31.9785 24.4102 31.8906V31.6035L22.0195 31.6152V31.9023C22.7168 31.9961 22.8984 32.2656 22.3359 33.1211L21.7266 34.041L19.9219 32.1426C19.8574 32.0781 19.793 32.0137 19.7344 31.9551C20.9648 31.5801 21.7617 30.959 21.7617 30.0977C21.7617 29.1426 20.8945 28.4043 19.3242 28.4043C17.7012 28.4043 16.6758 29.2949 16.6758 30.4492C16.6758 31.123 16.9629 31.6973 17.6133 32.4648C16.1895 32.875 15.416 33.7305 15.4102 34.832C15.4043 36.1504 16.459 37.123 17.9941 37.123ZM18.3984 29.7754C18.3984 29.1367 18.7852 28.8027 19.3242 28.8027C19.9336 28.8027 20.2852 29.3887 20.2852 30.1387C20.2793 30.7832 20.0273 31.3457 19.5117 31.7148C18.7031 30.8477 18.3984 30.3555 18.3984 29.7754ZM17.1152 33.9766C17.1152 33.4551 17.332 33.0098 17.8184 32.6992C18.0059 32.9102 18.2168 33.1328 18.4512 33.3789L20.5312 35.5527C20.0801 35.9277 19.6289 36.0801 19.1602 36.0801C18.0352 36.0801 17.1152 35.1953 17.1152 33.9766ZM30.293 31.0996L27.7031 31.416V31.6855L28.002 31.7793C28.3301 31.8906 28.377 31.9727 28.377 32.3535V36.0684C28.377 36.4902 28.2715 36.6133 27.7031 36.7129V37H30.8906V36.7129C30.3809 36.6191 30.3047 36.5137 30.3047 36.1035V32.418C30.4805 32.0898 30.8496 31.8672 31.3301 31.8672C31.9922 31.8672 32.3789 32.2598 32.3789 33.0449V36.1035C32.3789 36.5137 32.291 36.625 31.793 36.7129V37H34.9805V36.7129C34.4004 36.6133 34.3008 36.4902 34.3008 36.0684V32.9336C34.3008 31.668 33.498 31.0645 32.3086 31.0645C31.3125 31.0645 30.5859 31.5215 30.293 32.1895V31.0996ZM38.877 37.1172C40.7637 37.1172 42.1758 35.8633 42.1758 34.0645C42.1758 32.2305 40.7754 31.0645 38.9004 31.0645C37.0195 31.0645 35.6074 32.3125 35.6074 34.1113C35.6074 35.9512 37.0078 37.1172 38.877 37.1172ZM38.918 36.7305C38.1328 36.7305 37.6465 35.7227 37.6465 34.0469C37.6465 32.4297 38.0684 31.4512 38.8652 31.4512C39.6445 31.4512 40.1309 32.4531 40.1309 34.1289C40.1309 35.7461 39.709 36.7305 38.918 36.7305ZM43.4824 35.2832C43.4824 36.5723 44.2383 37.1172 45.2402 37.1172C46.002 37.1172 46.6348 36.7891 46.875 36.4258V36.1387C46.7285 36.2734 46.4883 36.3672 46.2305 36.3672C45.7324 36.3672 45.3984 36.0684 45.3984 35.2949V31.627L46.8047 31.7148V31.1758L45.3984 31.2637V29.7402H45.1758L42.8203 31.4629V31.7148H43.4824V35.2832ZM52.3887 31.0996L49.7871 31.416V31.6855L50.0918 31.7793C50.4141 31.8906 50.4609 31.9727 50.4609 32.3535V35.2305C50.4609 36.5078 51.2461 37.1172 52.3945 37.1172C53.3848 37.1172 54.0996 36.6602 54.3984 35.9922V37.0703L56.9824 36.7832V36.5137L56.6836 36.4258C56.3555 36.3086 56.3145 36.2266 56.3145 35.8457V31.0996L53.707 31.416V31.6855L54.0117 31.7793C54.3398 31.8906 54.3867 31.9727 54.3867 32.3535V35.7695C54.2109 36.0859 53.8594 36.3086 53.4082 36.3086C52.752 36.3086 52.3887 35.916 52.3887 35.125V31.0996ZM60.0703 31.0996L57.4805 31.416V31.6855L57.7793 31.7793C58.1016 31.8906 58.1543 31.9727 58.1543 32.3535V36.0801C58.1543 36.4902 58.0605 36.6191 57.4805 36.7129V37H60.832V36.7129C60.1875 36.6074 60.082 36.4844 60.082 36.0215V32.9512C60.3398 32.7109 60.9316 32.5586 61.5117 32.5586C61.8457 32.5586 62.1855 32.6113 62.3555 32.6758C62.4258 32.5352 62.4902 32.2891 62.4902 32.0371C62.4902 31.5098 62.2383 31.0879 61.7109 31.0879C61.1191 31.0879 60.627 31.5859 60.0645 32.752L60.0703 31.0996ZM62.8711 32.9922C62.8711 33.9473 63.6855 34.5449 64.7637 34.709C63.5684 34.8438 62.8887 35.377 62.8828 36.1328C62.8828 36.9062 63.6797 37.3926 64.8574 37.3926C63.2988 37.4629 62.6484 37.8965 62.6484 38.5176C62.6543 39.3203 63.8027 39.8594 65.6777 39.8594C67.4707 39.8594 68.877 38.9805 68.877 37.6855C68.877 36.5488 68.0391 35.8809 66.3691 35.8809H65.3848C64.7168 35.8809 64.3828 35.6934 64.3828 35.3594C64.3828 35.0605 64.6289 34.8672 65.0273 34.7852C65.2676 34.8145 65.4844 34.832 65.7129 34.832C67.2773 34.832 68.5137 34.1406 68.5137 32.9688C68.5137 32.3359 68.1094 31.8145 67.4766 31.5859L69.0996 31.709V31.1699L67.1133 31.3047C66.7266 31.1641 66.2227 31.0645 65.6719 31.0645C64.0664 31.0645 62.8711 31.8262 62.8711 32.9922ZM64.7578 32.9219C64.7578 32.002 65.0684 31.4219 65.6836 31.4219C66.2871 31.4219 66.6387 32.0371 66.6387 32.9746C66.6387 33.9004 66.3105 34.4746 65.7129 34.4746C65.1211 34.4746 64.7578 33.8711 64.7578 32.9219ZM64.2539 38.4004C64.2539 37.8672 64.5879 37.5156 65.1914 37.4512H66.0762C66.9316 37.4512 67.3125 37.791 67.3125 38.3535C67.3125 39.0332 66.6621 39.4727 65.707 39.4727C64.8047 39.4727 64.2539 39.0273 64.2539 38.4004ZM69.5449 34.0996C69.5449 35.9629 70.9219 37.1172 72.668 37.1172C73.7578 37.1172 74.6484 36.7246 75.0762 36.0801L75.0703 35.793C74.7773 36.0918 74.2852 36.3086 73.7109 36.3086C72.5215 36.3086 71.6543 35.4473 71.4961 33.9238H75.1523C75.1641 33.8242 75.1816 33.6719 75.1816 33.5195C75.1816 32.0664 74.209 31.0645 72.5859 31.0645C70.7578 31.0645 69.5449 32.3184 69.5449 34.0996ZM71.4727 33.4199C71.4727 32.1602 71.877 31.4512 72.5859 31.4512C73.207 31.4512 73.4883 32.1191 73.4883 33.1621C73.4883 33.332 73.4883 33.4551 73.4824 33.5664L71.4785 33.5898C71.4727 33.5312 71.4727 33.4785 71.4727 33.4199ZM78.4219 31.0996L75.832 31.416V31.6855L76.1309 31.7793C76.459 31.8906 76.5059 31.9727 76.5059 32.3535V36.0684C76.5059 36.4902 76.4004 36.6133 75.832 36.7129V37H79.0195V36.7129C78.5098 36.6191 78.4336 36.5137 78.4336 36.1035V32.418C78.6094 32.0898 78.9785 31.8672 79.459 31.8672C80.1211 31.8672 80.5078 32.2598 80.5078 33.0449V36.1035C80.5078 36.5137 80.4199 36.625 79.9219 36.7129V37H83.1094V36.7129C82.5293 36.6133 82.4297 36.4902 82.4297 36.0684V32.9336C82.4297 31.668 81.627 31.0645 80.4375 31.0645C79.4414 31.0645 78.7148 31.5215 78.4219 32.1895V31.0996ZM84.2051 35.2832C84.2051 36.5723 84.9609 37.1172 85.9629 37.1172C86.7246 37.1172 87.3574 36.7891 87.5977 36.4258V36.1387C87.4512 36.2734 87.2109 36.3672 86.9531 36.3672C86.4551 36.3672 86.1211 36.0684 86.1211 35.2949V31.627L87.5273 31.7148V31.1758L86.1211 31.2637V29.7402H85.8984L83.543 31.4629V31.7148H84.2051V35.2832Z" fill="#555555"/>
<path fill-rule="evenodd" clip-rule="evenodd" d="M133.5 33C139.299 33 144 28.299 144 22.5C144 16.701 139.299 12 133.5 12C127.701 12 123 16.701 123 22.5C123 28.299 127.701 33 133.5 33ZM136.148 25.4531L136.066 27H130.764V25.6992L131.625 24.8438C133.453 23.2324 134.027 22.3359 134.027 21.2754C134.027 20.3262 133.441 19.7051 132.504 19.7051C131.596 19.7051 130.998 20.1973 130.729 20.8652V20.5605C130.951 19.2598 131.977 18.4043 133.535 18.4043C135.012 18.4043 136.02 19.3477 136.02 20.7188C136.02 22.1543 135.053 23.2031 132.85 24.5859L131.455 25.4648L136.148 25.4531Z" fill="#555555"/>
</svg>
