<svg width="156" height="112" viewBox="0 0 156 112" fill="none" xmlns="http://www.w3.org/2000/svg">
<rect width="156" height="112" rx="15" fill="white"/>
<path d="M17.8594 17.0996L15.2695 17.416V17.6855L15.5684 17.7793C15.8965 17.8906 15.9434 17.9727 15.9434 18.3535V22.0684C15.9434 22.4902 15.8379 22.6133 15.2695 22.7129V23H18.457V22.7129C17.9473 22.6191 17.8711 22.5137 17.8711 22.1035V18.418C18.0469 18.0898 18.416 17.8672 18.8965 17.8672C19.5586 17.8672 19.9453 18.2598 19.9453 19.0449V22.1035C19.9453 22.5137 19.8574 22.625 19.3594 22.7129V23H22.5469V22.7129C21.9668 22.6133 21.8672 22.4902 21.8672 22.0684V18.9336C21.8672 17.668 21.0645 17.0645 19.875 17.0645C18.8789 17.0645 18.1523 17.5215 17.8594 18.1895V17.0996ZM26.4434 23.1172C28.3301 23.1172 29.7422 21.8633 29.7422 20.0645C29.7422 18.2305 28.3418 17.0645 26.4668 17.0645C24.5859 17.0645 23.1738 18.3125 23.1738 20.1113C23.1738 21.9512 24.5742 23.1172 26.4434 23.1172ZM26.4844 22.7305C25.6992 22.7305 25.2129 21.7227 25.2129 20.0469C25.2129 18.4297 25.6348 17.4512 26.4316 17.4512C27.2109 17.4512 27.6973 18.4531 27.6973 20.1289C27.6973 21.7461 27.2754 22.7305 26.4844 22.7305ZM31.0488 21.2832C31.0488 22.5723 31.8047 23.1172 32.8066 23.1172C33.5684 23.1172 34.2012 22.7891 34.4414 22.4258V22.1387C34.2949 22.2734 34.0547 22.3672 33.7969 22.3672C33.2988 22.3672 32.9648 22.0684 32.9648 21.2949V17.627L34.3711 17.7148V17.1758L32.9648 17.2637V15.7402H32.7422L30.3867 17.4629V17.7148H31.0488V21.2832ZM39.0059 16.332C39.5508 16.332 39.9902 15.9336 39.9902 15.4062C39.9902 14.8672 39.5508 14.4746 39.0059 14.4746C38.4609 14.4746 38.0215 14.8672 38.0215 15.4062C38.0215 15.9336 38.4609 16.332 39.0059 16.332ZM40.0781 17.0996L37.4766 17.416V17.6855L37.7754 17.7793C38.1035 17.8906 38.1504 17.9727 38.1504 18.3535V22.0684C38.1504 22.4902 38.0449 22.6133 37.4766 22.7129V23H40.752V22.7129C40.1836 22.6133 40.0781 22.4902 40.0781 22.0684V17.0996ZM43.8398 17.0996L41.25 17.416V17.6855L41.5488 17.7793C41.877 17.8906 41.9238 17.9727 41.9238 18.3535V22.0684C41.9238 22.4902 41.8184 22.6133 41.25 22.7129V23H44.4375V22.7129C43.9277 22.625 43.8516 22.5137 43.8516 22.1035V18.4062C44.0566 18.0605 44.3848 17.8672 44.8359 17.8672C45.4512 17.8672 45.8027 18.2539 45.8027 19.0332V22.1035C45.8027 22.5137 45.7324 22.6191 45.2227 22.7129V23H48.3164V22.7129C47.8066 22.6191 47.7305 22.5137 47.7305 22.1035V18.8691C47.7305 18.6992 47.7188 18.5352 47.6895 18.3887C47.8945 18.0488 48.2461 17.8672 48.7031 17.8672C49.3242 17.8672 49.6875 18.2539 49.6875 19.0332V22.1035C49.6875 22.5137 49.6113 22.6191 49.1016 22.7129V23H52.2891V22.7129C51.7207 22.6133 51.6152 22.4902 51.6152 22.0684V18.9219C51.6152 17.6855 50.8418 17.0645 49.6816 17.0645C48.7148 17.0645 47.9648 17.4922 47.6426 18.207C47.4141 17.4512 46.7695 17.0645 45.8438 17.0645C44.8887 17.0645 44.1621 17.4922 43.8398 18.1719V17.0996ZM59.5781 20.0352C59.5781 18.1719 58.5059 17.0645 57.1934 17.0645C56.2793 17.0645 55.5703 17.5332 55.3008 18.1953V17.0996L52.7168 17.416V17.6855L53.0156 17.7793C53.3379 17.8906 53.3906 17.9727 53.3906 18.3535V24.7754C53.3906 25.1855 53.291 25.3145 52.7168 25.4082V25.6953H56.0684V25.4082C55.418 25.3027 55.3125 25.1797 55.3125 24.7168V22.3848C55.5527 22.8125 56.1562 23.1172 56.8535 23.1172C58.3242 23.1172 59.5781 21.9805 59.5781 20.0352ZM57.5918 20.2109C57.5918 21.6582 57.0469 22.5488 56.2207 22.5488C55.8047 22.5488 55.4473 22.3262 55.3125 22.0391V18.4297C55.4941 18.0781 55.8164 17.8672 56.2617 17.8672C57.0527 17.8672 57.5918 18.7637 57.5918 20.2109ZM63.6855 23.1172C65.5723 23.1172 66.9844 21.8633 66.9844 20.0645C66.9844 18.2305 65.584 17.0645 63.709 17.0645C61.8281 17.0645 60.416 18.3125 60.416 20.1113C60.416 21.9512 61.8164 23.1172 63.6855 23.1172ZM63.7266 22.7305C62.9414 22.7305 62.4551 21.7227 62.4551 20.0469C62.4551 18.4297 62.877 17.4512 63.6738 17.4512C64.4531 17.4512 64.9395 18.4531 64.9395 20.1289C64.9395 21.7461 64.5176 22.7305 63.7266 22.7305ZM70.2656 17.0996L67.6758 17.416V17.6855L67.9746 17.7793C68.2969 17.8906 68.3496 17.9727 68.3496 18.3535V22.0801C68.3496 22.4902 68.2559 22.6191 67.6758 22.7129V23H71.0273V22.7129C70.3828 22.6074 70.2773 22.4844 70.2773 22.0215V18.9512C70.5352 18.7109 71.127 18.5586 71.707 18.5586C72.041 18.5586 72.3809 18.6113 72.5508 18.6758C72.6211 18.5352 72.6855 18.2891 72.6855 18.0371C72.6855 17.5098 72.4336 17.0879 71.9062 17.0879C71.3145 17.0879 70.8223 17.5859 70.2598 18.752L70.2656 17.0996ZM73.7754 21.2832C73.7754 22.5723 74.5312 23.1172 75.5332 23.1172C76.2949 23.1172 76.9277 22.7891 77.168 22.4258V22.1387C77.0215 22.2734 76.7812 22.3672 76.5234 22.3672C76.0254 22.3672 75.6914 22.0684 75.6914 21.2949V17.627L77.0977 17.7148V17.1758L75.6914 17.2637V15.7402H75.4688L73.1133 17.4629V17.7148H73.7754V21.2832ZM79.3301 23.1172C80.291 23.1172 81.0469 22.7188 81.2754 22.1211C81.3867 22.7598 82.0137 23.0879 82.7168 23.0879C83.2266 23.0879 83.6719 22.9531 83.9121 22.7832V22.5137C83.8535 22.5312 83.7715 22.543 83.6836 22.543C83.3613 22.543 83.1211 22.3379 83.1211 21.8516V19.0449C83.1211 17.6738 82.1309 17.0645 80.4785 17.0645C78.8613 17.0645 77.8594 17.7207 77.8594 18.5293C77.8594 18.998 78.2402 19.3438 78.7207 19.3438C79.207 19.3438 79.5879 18.9805 79.5879 18.5117C79.5879 18.1074 79.3066 17.7852 78.9375 17.709C79.1953 17.5918 79.4941 17.5273 79.8164 17.5273C80.7188 17.5273 81.2402 17.9434 81.2402 19.0156V19.6309L80.0918 19.8652C78.2988 20.2227 77.625 20.8203 77.625 21.6992C77.625 22.5488 78.3223 23.1172 79.3301 23.1172ZM79.5176 21.4004C79.5176 20.7266 79.8574 20.2812 80.8301 20.0527L81.2402 19.959V21.8926C81.082 22.209 80.7715 22.3848 80.3672 22.3848C79.8867 22.3848 79.5176 22.0391 79.5176 21.4004ZM86.8594 17.0996L84.2695 17.416V17.6855L84.5684 17.7793C84.8965 17.8906 84.9434 17.9727 84.9434 18.3535V22.0684C84.9434 22.4902 84.8379 22.6133 84.2695 22.7129V23H87.457V22.7129C86.9473 22.6191 86.8711 22.5137 86.8711 22.1035V18.418C87.0469 18.0898 87.416 17.8672 87.8965 17.8672C88.5586 17.8672 88.9453 18.2598 88.9453 19.0449V22.1035C88.9453 22.5137 88.8574 22.625 88.3594 22.7129V23H91.5469V22.7129C90.9668 22.6133 90.8672 22.4902 90.8672 22.0684V18.9336C90.8672 17.668 90.0645 17.0645 88.875 17.0645C87.8789 17.0645 87.1523 17.5215 86.8594 18.1895V17.0996ZM92.6426 21.2832C92.6426 22.5723 93.3984 23.1172 94.4004 23.1172C95.1621 23.1172 95.7949 22.7891 96.0352 22.4258V22.1387C95.8887 22.2734 95.6484 22.3672 95.3906 22.3672C94.8926 22.3672 94.5586 22.0684 94.5586 21.2949V17.627L95.9648 17.7148V17.1758L94.5586 17.2637V15.7402H94.3359L91.9805 17.4629V17.7148H92.6426V21.2832ZM17.9941 37.123C19.0957 37.123 19.8867 36.6602 20.7246 35.7578L21.9141 37H24.7148V36.7246C24.3047 36.6016 23.9121 36.3203 23.0273 35.4004L21.9375 34.2637L22.7402 33.209C23.5137 32.2129 23.8125 31.9785 24.4102 31.8906V31.6035L22.0195 31.6152V31.9023C22.7168 31.9961 22.8984 32.2656 22.3359 33.1211L21.7266 34.041L19.9219 32.1426C19.8574 32.0781 19.793 32.0137 19.7344 31.9551C20.9648 31.5801 21.7617 30.959 21.7617 30.0977C21.7617 29.1426 20.8945 28.4043 19.3242 28.4043C17.7012 28.4043 16.6758 29.2949 16.6758 30.4492C16.6758 31.123 16.9629 31.6973 17.6133 32.4648C16.1895 32.875 15.416 33.7305 15.4102 34.832C15.4043 36.1504 16.459 37.123 17.9941 37.123ZM18.3984 29.7754C18.3984 29.1367 18.7852 28.8027 19.3242 28.8027C19.9336 28.8027 20.2852 29.3887 20.2852 30.1387C20.2793 30.7832 20.0273 31.3457 19.5117 31.7148C18.7031 30.8477 18.3984 30.3555 18.3984 29.7754ZM17.1152 33.9766C17.1152 33.4551 17.332 33.0098 17.8184 32.6992C18.0059 32.9102 18.2168 33.1328 18.4512 33.3789L20.5312 35.5527C20.0801 35.9277 19.6289 36.0801 19.1602 36.0801C18.0352 36.0801 17.1152 35.1953 17.1152 33.9766ZM30.293 31.0996L27.7031 31.416V31.6855L28.002 31.7793C28.3301 31.8906 28.377 31.9727 28.377 32.3535V36.0684C28.377 36.4902 28.2715 36.6133 27.7031 36.7129V37H30.8906V36.7129C30.3809 36.6191 30.3047 36.5137 30.3047 36.1035V32.418C30.4805 32.0898 30.8496 31.8672 31.3301 31.8672C31.9922 31.8672 32.3789 32.2598 32.3789 33.0449V36.1035C32.3789 36.5137 32.291 36.625 31.793 36.7129V37H34.9805V36.7129C34.4004 36.6133 34.3008 36.4902 34.3008 36.0684V32.9336C34.3008 31.668 33.498 31.0645 32.3086 31.0645C31.3125 31.0645 30.5859 31.5215 30.293 32.1895V31.0996ZM38.877 37.1172C40.7637 37.1172 42.1758 35.8633 42.1758 34.0645C42.1758 32.2305 40.7754 31.0645 38.9004 31.0645C37.0195 31.0645 35.6074 32.3125 35.6074 34.1113C35.6074 35.9512 37.0078 37.1172 38.877 37.1172ZM38.918 36.7305C38.1328 36.7305 37.6465 35.7227 37.6465 34.0469C37.6465 32.4297 38.0684 31.4512 38.8652 31.4512C39.6445 31.4512 40.1309 32.4531 40.1309 34.1289C40.1309 35.7461 39.709 36.7305 38.918 36.7305ZM43.4824 35.2832C43.4824 36.5723 44.2383 37.1172 45.2402 37.1172C46.002 37.1172 46.6348 36.7891 46.875 36.4258V36.1387C46.7285 36.2734 46.4883 36.3672 46.2305 36.3672C45.7324 36.3672 45.3984 36.0684 45.3984 35.2949V31.627L46.8047 31.7148V31.1758L45.3984 31.2637V29.7402H45.1758L42.8203 31.4629V31.7148H43.4824V35.2832ZM52.3887 31.0996L49.7871 31.416V31.6855L50.0918 31.7793C50.4141 31.8906 50.4609 31.9727 50.4609 32.3535V35.2305C50.4609 36.5078 51.2461 37.1172 52.3945 37.1172C53.3848 37.1172 54.0996 36.6602 54.3984 35.9922V37.0703L56.9824 36.7832V36.5137L56.6836 36.4258C56.3555 36.3086 56.3145 36.2266 56.3145 35.8457V31.0996L53.707 31.416V31.6855L54.0117 31.7793C54.3398 31.8906 54.3867 31.9727 54.3867 32.3535V35.7695C54.2109 36.0859 53.8594 36.3086 53.4082 36.3086C52.752 36.3086 52.3887 35.916 52.3887 35.125V31.0996ZM60.0703 31.0996L57.4805 31.416V31.6855L57.7793 31.7793C58.1016 31.8906 58.1543 31.9727 58.1543 32.3535V36.0801C58.1543 36.4902 58.0605 36.6191 57.4805 36.7129V37H60.832V36.7129C60.1875 36.6074 60.082 36.4844 60.082 36.0215V32.9512C60.3398 32.7109 60.9316 32.5586 61.5117 32.5586C61.8457 32.5586 62.1855 32.6113 62.3555 32.6758C62.4258 32.5352 62.4902 32.2891 62.4902 32.0371C62.4902 31.5098 62.2383 31.0879 61.7109 31.0879C61.1191 31.0879 60.627 31.5859 60.0645 32.752L60.0703 31.0996ZM62.8711 32.9922C62.8711 33.9473 63.6855 34.5449 64.7637 34.709C63.5684 34.8438 62.8887 35.377 62.8828 36.1328C62.8828 36.9062 63.6797 37.3926 64.8574 37.3926C63.2988 37.4629 62.6484 37.8965 62.6484 38.5176C62.6543 39.3203 63.8027 39.8594 65.6777 39.8594C67.4707 39.8594 68.877 38.9805 68.877 37.6855C68.877 36.5488 68.0391 35.8809 66.3691 35.8809H65.3848C64.7168 35.8809 64.3828 35.6934 64.3828 35.3594C64.3828 35.0605 64.6289 34.8672 65.0273 34.7852C65.2676 34.8145 65.4844 34.832 65.7129 34.832C67.2773 34.832 68.5137 34.1406 68.5137 32.9688C68.5137 32.3359 68.1094 31.8145 67.4766 31.5859L69.0996 31.709V31.1699L67.1133 31.3047C66.7266 31.1641 66.2227 31.0645 65.6719 31.0645C64.0664 31.0645 62.8711 31.8262 62.8711 32.9922ZM64.7578 32.9219C64.7578 32.002 65.0684 31.4219 65.6836 31.4219C66.2871 31.4219 66.6387 32.0371 66.6387 32.9746C66.6387 33.9004 66.3105 34.4746 65.7129 34.4746C65.1211 34.4746 64.7578 33.8711 64.7578 32.9219ZM64.2539 38.4004C64.2539 37.8672 64.5879 37.5156 65.1914 37.4512H66.0762C66.9316 37.4512 67.3125 37.791 67.3125 38.3535C67.3125 39.0332 66.6621 39.4727 65.707 39.4727C64.8047 39.4727 64.2539 39.0273 64.2539 38.4004ZM69.5449 34.0996C69.5449 35.9629 70.9219 37.1172 72.668 37.1172C73.7578 37.1172 74.6484 36.7246 75.0762 36.0801L75.0703 35.793C74.7773 36.0918 74.2852 36.3086 73.7109 36.3086C72.5215 36.3086 71.6543 35.4473 71.4961 33.9238H75.1523C75.1641 33.8242 75.1816 33.6719 75.1816 33.5195C75.1816 32.0664 74.209 31.0645 72.5859 31.0645C70.7578 31.0645 69.5449 32.3184 69.5449 34.0996ZM71.4727 33.4199C71.4727 32.1602 71.877 31.4512 72.5859 31.4512C73.207 31.4512 73.4883 32.1191 73.4883 33.1621C73.4883 33.332 73.4883 33.4551 73.4824 33.5664L71.4785 33.5898C71.4727 33.5312 71.4727 33.4785 71.4727 33.4199ZM78.4219 31.0996L75.832 31.416V31.6855L76.1309 31.7793C76.459 31.8906 76.5059 31.9727 76.5059 32.3535V36.0684C76.5059 36.4902 76.4004 36.6133 75.832 36.7129V37H79.0195V36.7129C78.5098 36.6191 78.4336 36.5137 78.4336 36.1035V32.418C78.6094 32.0898 78.9785 31.8672 79.459 31.8672C80.1211 31.8672 80.5078 32.2598 80.5078 33.0449V36.1035C80.5078 36.5137 80.4199 36.625 79.9219 36.7129V37H83.1094V36.7129C82.5293 36.6133 82.4297 36.4902 82.4297 36.0684V32.9336C82.4297 31.668 81.627 31.0645 80.4375 31.0645C79.4414 31.0645 78.7148 31.5215 78.4219 32.1895V31.0996ZM84.2051 35.2832C84.2051 36.5723 84.9609 37.1172 85.9629 37.1172C86.7246 37.1172 87.3574 36.7891 87.5977 36.4258V36.1387C87.4512 36.2734 87.2109 36.3672 86.9531 36.3672C86.4551 36.3672 86.1211 36.0684 86.1211 35.2949V31.627L87.5273 31.7148V31.1758L86.1211 31.2637V29.7402H85.8984L83.543 31.4629V31.7148H84.2051V35.2832Z" fill="#555555"/>
<path fill-rule="evenodd" clip-rule="evenodd" d="M133.5 33C139.299 33 144 28.299 144 22.5C144 16.701 139.299 12 133.5 12C127.701 12 123 16.701 123 22.5C123 28.299 127.701 33 133.5 33ZM135.145 27H133.381V25.1543H129.707V24.2227L133.668 18.5273H135.145V23.8242H136.346L136.293 25.1543H135.145V27ZM130.656 23.8301H133.387V19.5879L130.656 23.8301Z" fill="#555555"/>
</svg>
