<svg width="156" height="79" viewBox="0 0 156 79" fill="none" xmlns="http://www.w3.org/2000/svg">
<rect width="156" height="79" rx="15" fill="white"/>
<path d="M17.8594 17.0996L15.2695 17.416V17.6855L15.5684 17.7793C15.8965 17.8906 15.9434 17.9727 15.9434 18.3535V22.0684C15.9434 22.4902 15.8379 22.6133 15.2695 22.7129V23H18.457V22.7129C17.9473 22.6191 17.8711 22.5137 17.8711 22.1035V18.418C18.0469 18.0898 18.416 17.8672 18.8965 17.8672C19.5586 17.8672 19.9453 18.2598 19.9453 19.0449V22.1035C19.9453 22.5137 19.8574 22.625 19.3594 22.7129V23H22.5469V22.7129C21.9668 22.6133 21.8672 22.4902 21.8672 22.0684V18.9336C21.8672 17.668 21.0645 17.0645 19.875 17.0645C18.8789 17.0645 18.1523 17.5215 17.8594 18.1895V17.0996ZM26.4434 23.1172C28.3301 23.1172 29.7422 21.8633 29.7422 20.0645C29.7422 18.2305 28.3418 17.0645 26.4668 17.0645C24.5859 17.0645 23.1738 18.3125 23.1738 20.1113C23.1738 21.9512 24.5742 23.1172 26.4434 23.1172ZM26.4844 22.7305C25.6992 22.7305 25.2129 21.7227 25.2129 20.0469C25.2129 18.4297 25.6348 17.4512 26.4316 17.4512C27.2109 17.4512 27.6973 18.4531 27.6973 20.1289C27.6973 21.7461 27.2754 22.7305 26.4844 22.7305ZM31.0488 21.2832C31.0488 22.5723 31.8047 23.1172 32.8066 23.1172C33.5684 23.1172 34.2012 22.7891 34.4414 22.4258V22.1387C34.2949 22.2734 34.0547 22.3672 33.7969 22.3672C33.2988 22.3672 32.9648 22.0684 32.9648 21.2949V17.627L34.3711 17.7148V17.1758L32.9648 17.2637V15.7402H32.7422L30.3867 17.4629V17.7148H31.0488V21.2832ZM39.0059 16.332C39.5508 16.332 39.9902 15.9336 39.9902 15.4062C39.9902 14.8672 39.5508 14.4746 39.0059 14.4746C38.4609 14.4746 38.0215 14.8672 38.0215 15.4062C38.0215 15.9336 38.4609 16.332 39.0059 16.332ZM40.0781 17.0996L37.4766 17.416V17.6855L37.7754 17.7793C38.1035 17.8906 38.1504 17.9727 38.1504 18.3535V22.0684C38.1504 22.4902 38.0449 22.6133 37.4766 22.7129V23H40.752V22.7129C40.1836 22.6133 40.0781 22.4902 40.0781 22.0684V17.0996ZM43.8398 17.0996L41.25 17.416V17.6855L41.5488 17.7793C41.877 17.8906 41.9238 17.9727 41.9238 18.3535V22.0684C41.9238 22.4902 41.8184 22.6133 41.25 22.7129V23H44.4375V22.7129C43.9277 22.625 43.8516 22.5137 43.8516 22.1035V18.4062C44.0566 18.0605 44.3848 17.8672 44.8359 17.8672C45.4512 17.8672 45.8027 18.2539 45.8027 19.0332V22.1035C45.8027 22.5137 45.7324 22.6191 45.2227 22.7129V23H48.3164V22.7129C47.8066 22.6191 47.7305 22.5137 47.7305 22.1035V18.8691C47.7305 18.6992 47.7188 18.5352 47.6895 18.3887C47.8945 18.0488 48.2461 17.8672 48.7031 17.8672C49.3242 17.8672 49.6875 18.2539 49.6875 19.0332V22.1035C49.6875 22.5137 49.6113 22.6191 49.1016 22.7129V23H52.2891V22.7129C51.7207 22.6133 51.6152 22.4902 51.6152 22.0684V18.9219C51.6152 17.6855 50.8418 17.0645 49.6816 17.0645C48.7148 17.0645 47.9648 17.4922 47.6426 18.207C47.4141 17.4512 46.7695 17.0645 45.8438 17.0645C44.8887 17.0645 44.1621 17.4922 43.8398 18.1719V17.0996ZM59.5781 20.0352C59.5781 18.1719 58.5059 17.0645 57.1934 17.0645C56.2793 17.0645 55.5703 17.5332 55.3008 18.1953V17.0996L52.7168 17.416V17.6855L53.0156 17.7793C53.3379 17.8906 53.3906 17.9727 53.3906 18.3535V24.7754C53.3906 25.1855 53.291 25.3145 52.7168 25.4082V25.6953H56.0684V25.4082C55.418 25.3027 55.3125 25.1797 55.3125 24.7168V22.3848C55.5527 22.8125 56.1562 23.1172 56.8535 23.1172C58.3242 23.1172 59.5781 21.9805 59.5781 20.0352ZM57.5918 20.2109C57.5918 21.6582 57.0469 22.5488 56.2207 22.5488C55.8047 22.5488 55.4473 22.3262 55.3125 22.0391V18.4297C55.4941 18.0781 55.8164 17.8672 56.2617 17.8672C57.0527 17.8672 57.5918 18.7637 57.5918 20.2109ZM63.6855 23.1172C65.5723 23.1172 66.9844 21.8633 66.9844 20.0645C66.9844 18.2305 65.584 17.0645 63.709 17.0645C61.8281 17.0645 60.416 18.3125 60.416 20.1113C60.416 21.9512 61.8164 23.1172 63.6855 23.1172ZM63.7266 22.7305C62.9414 22.7305 62.4551 21.7227 62.4551 20.0469C62.4551 18.4297 62.877 17.4512 63.6738 17.4512C64.4531 17.4512 64.9395 18.4531 64.9395 20.1289C64.9395 21.7461 64.5176 22.7305 63.7266 22.7305ZM70.2656 17.0996L67.6758 17.416V17.6855L67.9746 17.7793C68.2969 17.8906 68.3496 17.9727 68.3496 18.3535V22.0801C68.3496 22.4902 68.2559 22.6191 67.6758 22.7129V23H71.0273V22.7129C70.3828 22.6074 70.2773 22.4844 70.2773 22.0215V18.9512C70.5352 18.7109 71.127 18.5586 71.707 18.5586C72.041 18.5586 72.3809 18.6113 72.5508 18.6758C72.6211 18.5352 72.6855 18.2891 72.6855 18.0371C72.6855 17.5098 72.4336 17.0879 71.9062 17.0879C71.3145 17.0879 70.8223 17.5859 70.2598 18.752L70.2656 17.0996ZM73.7754 21.2832C73.7754 22.5723 74.5312 23.1172 75.5332 23.1172C76.2949 23.1172 76.9277 22.7891 77.168 22.4258V22.1387C77.0215 22.2734 76.7812 22.3672 76.5234 22.3672C76.0254 22.3672 75.6914 22.0684 75.6914 21.2949V17.627L77.0977 17.7148V17.1758L75.6914 17.2637V15.7402H75.4688L73.1133 17.4629V17.7148H73.7754V21.2832ZM79.3301 23.1172C80.291 23.1172 81.0469 22.7188 81.2754 22.1211C81.3867 22.7598 82.0137 23.0879 82.7168 23.0879C83.2266 23.0879 83.6719 22.9531 83.9121 22.7832V22.5137C83.8535 22.5312 83.7715 22.543 83.6836 22.543C83.3613 22.543 83.1211 22.3379 83.1211 21.8516V19.0449C83.1211 17.6738 82.1309 17.0645 80.4785 17.0645C78.8613 17.0645 77.8594 17.7207 77.8594 18.5293C77.8594 18.998 78.2402 19.3438 78.7207 19.3438C79.207 19.3438 79.5879 18.9805 79.5879 18.5117C79.5879 18.1074 79.3066 17.7852 78.9375 17.709C79.1953 17.5918 79.4941 17.5273 79.8164 17.5273C80.7188 17.5273 81.2402 17.9434 81.2402 19.0156V19.6309L80.0918 19.8652C78.2988 20.2227 77.625 20.8203 77.625 21.6992C77.625 22.5488 78.3223 23.1172 79.3301 23.1172ZM79.5176 21.4004C79.5176 20.7266 79.8574 20.2812 80.8301 20.0527L81.2402 19.959V21.8926C81.082 22.209 80.7715 22.3848 80.3672 22.3848C79.8867 22.3848 79.5176 22.0391 79.5176 21.4004ZM86.8594 17.0996L84.2695 17.416V17.6855L84.5684 17.7793C84.8965 17.8906 84.9434 17.9727 84.9434 18.3535V22.0684C84.9434 22.4902 84.8379 22.6133 84.2695 22.7129V23H87.457V22.7129C86.9473 22.6191 86.8711 22.5137 86.8711 22.1035V18.418C87.0469 18.0898 87.416 17.8672 87.8965 17.8672C88.5586 17.8672 88.9453 18.2598 88.9453 19.0449V22.1035C88.9453 22.5137 88.8574 22.625 88.3594 22.7129V23H91.5469V22.7129C90.9668 22.6133 90.8672 22.4902 90.8672 22.0684V18.9336C90.8672 17.668 90.0645 17.0645 88.875 17.0645C87.8789 17.0645 87.1523 17.5215 86.8594 18.1895V17.0996ZM92.6426 21.2832C92.6426 22.5723 93.3984 23.1172 94.4004 23.1172C95.1621 23.1172 95.7949 22.7891 96.0352 22.4258V22.1387C95.8887 22.2734 95.6484 22.3672 95.3906 22.3672C94.8926 22.3672 94.5586 22.0684 94.5586 21.2949V17.627L95.9648 17.7148V17.1758L94.5586 17.2637V15.7402H94.3359L91.9805 17.4629V17.7148H92.6426V21.2832ZM17.9941 37.123C19.0957 37.123 19.8867 36.6602 20.7246 35.7578L21.9141 37H24.7148V36.7246C24.3047 36.6016 23.9121 36.3203 23.0273 35.4004L21.9375 34.2637L22.7402 33.209C23.5137 32.2129 23.8125 31.9785 24.4102 31.8906V31.6035L22.0195 31.6152V31.9023C22.7168 31.9961 22.8984 32.2656 22.3359 33.1211L21.7266 34.041L19.9219 32.1426C19.8574 32.0781 19.793 32.0137 19.7344 31.9551C20.9648 31.5801 21.7617 30.959 21.7617 30.0977C21.7617 29.1426 20.8945 28.4043 19.3242 28.4043C17.7012 28.4043 16.6758 29.2949 16.6758 30.4492C16.6758 31.123 16.9629 31.6973 17.6133 32.4648C16.1895 32.875 15.416 33.7305 15.4102 34.832C15.4043 36.1504 16.459 37.123 17.9941 37.123ZM18.3984 29.7754C18.3984 29.1367 18.7852 28.8027 19.3242 28.8027C19.9336 28.8027 20.2852 29.3887 20.2852 30.1387C20.2793 30.7832 20.0273 31.3457 19.5117 31.7148C18.7031 30.8477 18.3984 30.3555 18.3984 29.7754ZM17.1152 33.9766C17.1152 33.4551 17.332 33.0098 17.8184 32.6992C18.0059 32.9102 18.2168 33.1328 18.4512 33.3789L20.5312 35.5527C20.0801 35.9277 19.6289 36.0801 19.1602 36.0801C18.0352 36.0801 17.1152 35.1953 17.1152 33.9766ZM30.1816 31.0996L27.5801 31.416V31.6855L27.8848 31.7793C28.207 31.8906 28.2539 31.9727 28.2539 32.3535V35.2305C28.2539 36.5078 29.0391 37.1172 30.1875 37.1172C31.1777 37.1172 31.8926 36.6602 32.1914 35.9922V37.0703L34.7754 36.7832V36.5137L34.4766 36.4258C34.1484 36.3086 34.1074 36.2266 34.1074 35.8457V31.0996L31.5 31.416V31.6855L31.8047 31.7793C32.1328 31.8906 32.1797 31.9727 32.1797 32.3535V35.7695C32.0039 36.0859 31.6523 36.3086 31.2012 36.3086C30.5449 36.3086 30.1816 35.916 30.1816 35.125V31.0996ZM37.8633 31.0996L35.2734 31.416V31.6855L35.5723 31.7793C35.8945 31.8906 35.9473 31.9727 35.9473 32.3535V36.0801C35.9473 36.4902 35.8535 36.6191 35.2734 36.7129V37H38.625V36.7129C37.9805 36.6074 37.875 36.4844 37.875 36.0215V32.9512C38.1328 32.7109 38.7246 32.5586 39.3047 32.5586C39.6387 32.5586 39.9785 32.6113 40.1484 32.6758C40.2188 32.5352 40.2832 32.2891 40.2832 32.0371C40.2832 31.5098 40.0312 31.0879 39.5039 31.0879C38.9121 31.0879 38.4199 31.5859 37.8574 32.752L37.8633 31.0996ZM40.6641 32.9922C40.6641 33.9473 41.4785 34.5449 42.5566 34.709C41.3613 34.8438 40.6816 35.377 40.6758 36.1328C40.6758 36.9062 41.4727 37.3926 42.6504 37.3926C41.0918 37.4629 40.4414 37.8965 40.4414 38.5176C40.4473 39.3203 41.5957 39.8594 43.4707 39.8594C45.2637 39.8594 46.6699 38.9805 46.6699 37.6855C46.6699 36.5488 45.832 35.8809 44.1621 35.8809H43.1777C42.5098 35.8809 42.1758 35.6934 42.1758 35.3594C42.1758 35.0605 42.4219 34.8672 42.8203 34.7852C43.0605 34.8145 43.2773 34.832 43.5059 34.832C45.0703 34.832 46.3066 34.1406 46.3066 32.9688C46.3066 32.3359 45.9023 31.8145 45.2695 31.5859L46.8926 31.709V31.1699L44.9062 31.3047C44.5195 31.1641 44.0156 31.0645 43.4648 31.0645C41.8594 31.0645 40.6641 31.8262 40.6641 32.9922ZM42.5508 32.9219C42.5508 32.002 42.8613 31.4219 43.4766 31.4219C44.0801 31.4219 44.4316 32.0371 44.4316 32.9746C44.4316 33.9004 44.1035 34.4746 43.5059 34.4746C42.9141 34.4746 42.5508 33.8711 42.5508 32.9219ZM42.0469 38.4004C42.0469 37.8672 42.3809 37.5156 42.9844 37.4512H43.8691C44.7246 37.4512 45.1055 37.791 45.1055 38.3535C45.1055 39.0332 44.4551 39.4727 43.5 39.4727C42.5977 39.4727 42.0469 39.0273 42.0469 38.4004ZM47.3379 34.0996C47.3379 35.9629 48.7148 37.1172 50.4609 37.1172C51.5508 37.1172 52.4414 36.7246 52.8691 36.0801L52.8633 35.793C52.5703 36.0918 52.0781 36.3086 51.5039 36.3086C50.3145 36.3086 49.4473 35.4473 49.2891 33.9238H52.9453C52.957 33.8242 52.9746 33.6719 52.9746 33.5195C52.9746 32.0664 52.002 31.0645 50.3789 31.0645C48.5508 31.0645 47.3379 32.3184 47.3379 34.0996ZM49.2656 33.4199C49.2656 32.1602 49.6699 31.4512 50.3789 31.4512C51 31.4512 51.2812 32.1191 51.2812 33.1621C51.2812 33.332 51.2812 33.4551 51.2754 33.5664L49.2715 33.5898C49.2656 33.5312 49.2656 33.4785 49.2656 33.4199ZM56.2148 31.0996L53.625 31.416V31.6855L53.9238 31.7793C54.252 31.8906 54.2988 31.9727 54.2988 32.3535V36.0684C54.2988 36.4902 54.1934 36.6133 53.625 36.7129V37H56.8125V36.7129C56.3027 36.6191 56.2266 36.5137 56.2266 36.1035V32.418C56.4023 32.0898 56.7715 31.8672 57.252 31.8672C57.9141 31.8672 58.3008 32.2598 58.3008 33.0449V36.1035C58.3008 36.5137 58.2129 36.625 57.7148 36.7129V37H60.9023V36.7129C60.3223 36.6133 60.2227 36.4902 60.2227 36.0684V32.9336C60.2227 31.668 59.4199 31.0645 58.2305 31.0645C57.2344 31.0645 56.5078 31.5215 56.2148 32.1895V31.0996ZM61.998 35.2832C61.998 36.5723 62.7539 37.1172 63.7559 37.1172C64.5176 37.1172 65.1504 36.7891 65.3906 36.4258V36.1387C65.2441 36.2734 65.0039 36.3672 64.7461 36.3672C64.248 36.3672 63.9141 36.0684 63.9141 35.2949V31.627L65.3203 31.7148V31.1758L63.9141 31.2637V29.7402H63.6914L61.3359 31.4629V31.7148H61.998V35.2832Z" fill="#555555"/>
<path fill-rule="evenodd" clip-rule="evenodd" d="M136.5 33C142.299 33 147 28.299 147 22.5C147 16.701 142.299 12 136.5 12C130.701 12 126 16.701 126 22.5C126 28.299 130.701 33 136.5 33ZM133.518 25.207C133.518 24.7148 133.875 24.3574 134.338 24.3574C134.789 24.3574 135.146 24.7031 135.146 25.1602C135.146 25.6113 134.795 25.957 134.355 25.957C134.297 25.957 134.238 25.9512 134.18 25.9395C134.461 26.2852 134.93 26.502 135.469 26.502C136.494 26.502 137.25 25.8457 137.25 24.7734C137.25 23.5957 136.395 22.7871 134.883 22.7812V22.4707C136.447 22.2656 137.115 21.6797 137.115 20.9062C137.115 20.1855 136.576 19.7051 135.686 19.7051C134.754 19.7051 134.074 20.1387 133.74 20.8066V20.5137C133.998 19.3008 135.059 18.4043 136.6 18.4043C138.07 18.4043 139.049 19.207 139.049 20.373C139.049 21.3574 138.281 22.0312 137.197 22.2129C138.451 22.3828 139.283 23.332 139.283 24.5684C139.283 26.2031 137.807 27.1348 136.178 27.1348C134.602 27.1348 133.518 26.2676 133.518 25.207Z" fill="#555555"/>
</svg>
