<svg width="156" height="266" viewBox="0 0 156 266" fill="none" xmlns="http://www.w3.org/2000/svg">
<rect width="156" height="266" rx="15" fill="#FF8181"/>
<path d="M16.7988 16.332C17.3438 16.332 17.7832 15.9336 17.7832 15.4062C17.7832 14.8672 17.3438 14.4746 16.7988 14.4746C16.2539 14.4746 15.8145 14.8672 15.8145 15.4062C15.8145 15.9336 16.2539 16.332 16.7988 16.332ZM17.8711 17.0996L15.2695 17.416V17.6855L15.5684 17.7793C15.8965 17.8906 15.9434 17.9727 15.9434 18.3535V22.0684C15.9434 22.4902 15.8379 22.6133 15.2695 22.7129V23H18.5449V22.7129C17.9766 22.6133 17.8711 22.4902 17.8711 22.0684V17.0996ZM21.6328 17.0996L19.043 17.416V17.6855L19.3418 17.7793C19.6699 17.8906 19.7168 17.9727 19.7168 18.3535V22.0684C19.7168 22.4902 19.6113 22.6133 19.043 22.7129V23H22.2305V22.7129C21.7207 22.625 21.6445 22.5137 21.6445 22.1035V18.4062C21.8496 18.0605 22.1777 17.8672 22.6289 17.8672C23.2441 17.8672 23.5957 18.2539 23.5957 19.0332V22.1035C23.5957 22.5137 23.5254 22.6191 23.0156 22.7129V23H26.1094V22.7129C25.5996 22.6191 25.5234 22.5137 25.5234 22.1035V18.8691C25.5234 18.6992 25.5117 18.5352 25.4824 18.3887C25.6875 18.0488 26.0391 17.8672 26.4961 17.8672C27.1172 17.8672 27.4805 18.2539 27.4805 19.0332V22.1035C27.4805 22.5137 27.4043 22.6191 26.8945 22.7129V23H30.082V22.7129C29.5137 22.6133 29.4082 22.4902 29.4082 22.0684V18.9219C29.4082 17.6855 28.6348 17.0645 27.4746 17.0645C26.5078 17.0645 25.7578 17.4922 25.4355 18.207C25.207 17.4512 24.5625 17.0645 23.6367 17.0645C22.6816 17.0645 21.9551 17.4922 21.6328 18.1719V17.0996ZM37.3711 20.0352C37.3711 18.1719 36.2988 17.0645 34.9863 17.0645C34.0723 17.0645 33.3633 17.5332 33.0938 18.1953V17.0996L30.5098 17.416V17.6855L30.8086 17.7793C31.1309 17.8906 31.1836 17.9727 31.1836 18.3535V24.7754C31.1836 25.1855 31.084 25.3145 30.5098 25.4082V25.6953H33.8613V25.4082C33.2109 25.3027 33.1055 25.1797 33.1055 24.7168V22.3848C33.3457 22.8125 33.9492 23.1172 34.6465 23.1172C36.1172 23.1172 37.3711 21.9805 37.3711 20.0352ZM35.3848 20.2109C35.3848 21.6582 34.8398 22.5488 34.0137 22.5488C33.5977 22.5488 33.2402 22.3262 33.1055 22.0391V18.4297C33.2871 18.0781 33.6094 17.8672 34.0547 17.8672C34.8457 17.8672 35.3848 18.7637 35.3848 20.2109ZM41.4785 23.1172C43.3652 23.1172 44.7773 21.8633 44.7773 20.0645C44.7773 18.2305 43.377 17.0645 41.502 17.0645C39.6211 17.0645 38.209 18.3125 38.209 20.1113C38.209 21.9512 39.6094 23.1172 41.4785 23.1172ZM41.5195 22.7305C40.7344 22.7305 40.248 21.7227 40.248 20.0469C40.248 18.4297 40.6699 17.4512 41.4668 17.4512C42.2461 17.4512 42.7324 18.4531 42.7324 20.1289C42.7324 21.7461 42.3105 22.7305 41.5195 22.7305ZM48.0586 17.0996L45.4688 17.416V17.6855L45.7676 17.7793C46.0898 17.8906 46.1426 17.9727 46.1426 18.3535V22.0801C46.1426 22.4902 46.0488 22.6191 45.4688 22.7129V23H48.8203V22.7129C48.1758 22.6074 48.0703 22.4844 48.0703 22.0215V18.9512C48.3281 18.7109 48.9199 18.5586 49.5 18.5586C49.834 18.5586 50.1738 18.6113 50.3438 18.6758C50.4141 18.5352 50.4785 18.2891 50.4785 18.0371C50.4785 17.5098 50.2266 17.0879 49.6992 17.0879C49.1074 17.0879 48.6152 17.5859 48.0527 18.752L48.0586 17.0996ZM51.5684 21.2832C51.5684 22.5723 52.3242 23.1172 53.3262 23.1172C54.0879 23.1172 54.7207 22.7891 54.9609 22.4258V22.1387C54.8145 22.2734 54.5742 22.3672 54.3164 22.3672C53.8184 22.3672 53.4844 22.0684 53.4844 21.2949V17.627L54.8906 17.7148V17.1758L53.4844 17.2637V15.7402H53.2617L50.9062 17.4629V17.7148H51.5684V21.2832ZM57.123 23.1172C58.084 23.1172 58.8398 22.7188 59.0684 22.1211C59.1797 22.7598 59.8066 23.0879 60.5098 23.0879C61.0195 23.0879 61.4648 22.9531 61.7051 22.7832V22.5137C61.6465 22.5312 61.5645 22.543 61.4766 22.543C61.1543 22.543 60.9141 22.3379 60.9141 21.8516V19.0449C60.9141 17.6738 59.9238 17.0645 58.2715 17.0645C56.6543 17.0645 55.6523 17.7207 55.6523 18.5293C55.6523 18.998 56.0332 19.3438 56.5137 19.3438C57 19.3438 57.3809 18.9805 57.3809 18.5117C57.3809 18.1074 57.0996 17.7852 56.7305 17.709C56.9883 17.5918 57.2871 17.5273 57.6094 17.5273C58.5117 17.5273 59.0332 17.9434 59.0332 19.0156V19.6309L57.8848 19.8652C56.0918 20.2227 55.418 20.8203 55.418 21.6992C55.418 22.5488 56.1152 23.1172 57.123 23.1172ZM57.3105 21.4004C57.3105 20.7266 57.6504 20.2812 58.623 20.0527L59.0332 19.959V21.8926C58.875 22.209 58.5645 22.3848 58.1602 22.3848C57.6797 22.3848 57.3105 22.0391 57.3105 21.4004ZM64.6523 17.0996L62.0625 17.416V17.6855L62.3613 17.7793C62.6895 17.8906 62.7363 17.9727 62.7363 18.3535V22.0684C62.7363 22.4902 62.6309 22.6133 62.0625 22.7129V23H65.25V22.7129C64.7402 22.6191 64.6641 22.5137 64.6641 22.1035V18.418C64.8398 18.0898 65.209 17.8672 65.6895 17.8672C66.3516 17.8672 66.7383 18.2598 66.7383 19.0449V22.1035C66.7383 22.5137 66.6504 22.625 66.1523 22.7129V23H69.3398V22.7129C68.7598 22.6133 68.6602 22.4902 68.6602 22.0684V18.9336C68.6602 17.668 67.8574 17.0645 66.668 17.0645C65.6719 17.0645 64.9453 17.5215 64.6523 18.1895V17.0996ZM70.4355 21.2832C70.4355 22.5723 71.1914 23.1172 72.1934 23.1172C72.9551 23.1172 73.5879 22.7891 73.8281 22.4258V22.1387C73.6816 22.2734 73.4414 22.3672 73.1836 22.3672C72.6855 22.3672 72.3516 22.0684 72.3516 21.2949V17.627L73.7578 17.7148V17.1758L72.3516 17.2637V15.7402H72.1289L69.7734 17.4629V17.7148H70.4355V21.2832ZM17.9941 37.123C19.0957 37.123 19.8867 36.6602 20.7246 35.7578L21.9141 37H24.7148V36.7246C24.3047 36.6016 23.9121 36.3203 23.0273 35.4004L21.9375 34.2637L22.7402 33.209C23.5137 32.2129 23.8125 31.9785 24.4102 31.8906V31.6035L22.0195 31.6152V31.9023C22.7168 31.9961 22.8984 32.2656 22.3359 33.1211L21.7266 34.041L19.9219 32.1426C19.8574 32.0781 19.793 32.0137 19.7344 31.9551C20.9648 31.5801 21.7617 30.959 21.7617 30.0977C21.7617 29.1426 20.8945 28.4043 19.3242 28.4043C17.7012 28.4043 16.6758 29.2949 16.6758 30.4492C16.6758 31.123 16.9629 31.6973 17.6133 32.4648C16.1895 32.875 15.416 33.7305 15.4102 34.832C15.4043 36.1504 16.459 37.123 17.9941 37.123ZM18.3984 29.7754C18.3984 29.1367 18.7852 28.8027 19.3242 28.8027C19.9336 28.8027 20.2852 29.3887 20.2852 30.1387C20.2793 30.7832 20.0273 31.3457 19.5117 31.7148C18.7031 30.8477 18.3984 30.3555 18.3984 29.7754ZM17.1152 33.9766C17.1152 33.4551 17.332 33.0098 17.8184 32.6992C18.0059 32.9102 18.2168 33.1328 18.4512 33.3789L20.5312 35.5527C20.0801 35.9277 19.6289 36.0801 19.1602 36.0801C18.0352 36.0801 17.1152 35.1953 17.1152 33.9766ZM30.1816 31.0996L27.5801 31.416V31.6855L27.8848 31.7793C28.207 31.8906 28.2539 31.9727 28.2539 32.3535V35.2305C28.2539 36.5078 29.0391 37.1172 30.1875 37.1172C31.1777 37.1172 31.8926 36.6602 32.1914 35.9922V37.0703L34.7754 36.7832V36.5137L34.4766 36.4258C34.1484 36.3086 34.1074 36.2266 34.1074 35.8457V31.0996L31.5 31.416V31.6855L31.8047 31.7793C32.1328 31.8906 32.1797 31.9727 32.1797 32.3535V35.7695C32.0039 36.0859 31.6523 36.3086 31.2012 36.3086C30.5449 36.3086 30.1816 35.916 30.1816 35.125V31.0996ZM37.8633 31.0996L35.2734 31.416V31.6855L35.5723 31.7793C35.8945 31.8906 35.9473 31.9727 35.9473 32.3535V36.0801C35.9473 36.4902 35.8535 36.6191 35.2734 36.7129V37H38.625V36.7129C37.9805 36.6074 37.875 36.4844 37.875 36.0215V32.9512C38.1328 32.7109 38.7246 32.5586 39.3047 32.5586C39.6387 32.5586 39.9785 32.6113 40.1484 32.6758C40.2188 32.5352 40.2832 32.2891 40.2832 32.0371C40.2832 31.5098 40.0312 31.0879 39.5039 31.0879C38.9121 31.0879 38.4199 31.5859 37.8574 32.752L37.8633 31.0996ZM40.6641 32.9922C40.6641 33.9473 41.4785 34.5449 42.5566 34.709C41.3613 34.8438 40.6816 35.377 40.6758 36.1328C40.6758 36.9062 41.4727 37.3926 42.6504 37.3926C41.0918 37.4629 40.4414 37.8965 40.4414 38.5176C40.4473 39.3203 41.5957 39.8594 43.4707 39.8594C45.2637 39.8594 46.6699 38.9805 46.6699 37.6855C46.6699 36.5488 45.832 35.8809 44.1621 35.8809H43.1777C42.5098 35.8809 42.1758 35.6934 42.1758 35.3594C42.1758 35.0605 42.4219 34.8672 42.8203 34.7852C43.0605 34.8145 43.2773 34.832 43.5059 34.832C45.0703 34.832 46.3066 34.1406 46.3066 32.9688C46.3066 32.3359 45.9023 31.8145 45.2695 31.5859L46.8926 31.709V31.1699L44.9062 31.3047C44.5195 31.1641 44.0156 31.0645 43.4648 31.0645C41.8594 31.0645 40.6641 31.8262 40.6641 32.9922ZM42.5508 32.9219C42.5508 32.002 42.8613 31.4219 43.4766 31.4219C44.0801 31.4219 44.4316 32.0371 44.4316 32.9746C44.4316 33.9004 44.1035 34.4746 43.5059 34.4746C42.9141 34.4746 42.5508 33.8711 42.5508 32.9219ZM42.0469 38.4004C42.0469 37.8672 42.3809 37.5156 42.9844 37.4512H43.8691C44.7246 37.4512 45.1055 37.791 45.1055 38.3535C45.1055 39.0332 44.4551 39.4727 43.5 39.4727C42.5977 39.4727 42.0469 39.0273 42.0469 38.4004ZM47.3379 34.0996C47.3379 35.9629 48.7148 37.1172 50.4609 37.1172C51.5508 37.1172 52.4414 36.7246 52.8691 36.0801L52.8633 35.793C52.5703 36.0918 52.0781 36.3086 51.5039 36.3086C50.3145 36.3086 49.4473 35.4473 49.2891 33.9238H52.9453C52.957 33.8242 52.9746 33.6719 52.9746 33.5195C52.9746 32.0664 52.002 31.0645 50.3789 31.0645C48.5508 31.0645 47.3379 32.3184 47.3379 34.0996ZM49.2656 33.4199C49.2656 32.1602 49.6699 31.4512 50.3789 31.4512C51 31.4512 51.2812 32.1191 51.2812 33.1621C51.2812 33.332 51.2812 33.4551 51.2754 33.5664L49.2715 33.5898C49.2656 33.5312 49.2656 33.4785 49.2656 33.4199ZM56.2148 31.0996L53.625 31.416V31.6855L53.9238 31.7793C54.252 31.8906 54.2988 31.9727 54.2988 32.3535V36.0684C54.2988 36.4902 54.1934 36.6133 53.625 36.7129V37H56.8125V36.7129C56.3027 36.6191 56.2266 36.5137 56.2266 36.1035V32.418C56.4023 32.0898 56.7715 31.8672 57.252 31.8672C57.9141 31.8672 58.3008 32.2598 58.3008 33.0449V36.1035C58.3008 36.5137 58.2129 36.625 57.7148 36.7129V37H60.9023V36.7129C60.3223 36.6133 60.2227 36.4902 60.2227 36.0684V32.9336C60.2227 31.668 59.4199 31.0645 58.2305 31.0645C57.2344 31.0645 56.5078 31.5215 56.2148 32.1895V31.0996ZM61.998 35.2832C61.998 36.5723 62.7539 37.1172 63.7559 37.1172C64.5176 37.1172 65.1504 36.7891 65.3906 36.4258V36.1387C65.2441 36.2734 65.0039 36.3672 64.7461 36.3672C64.248 36.3672 63.9141 36.0684 63.9141 35.2949V31.627L65.3203 31.7148V31.1758L63.9141 31.2637V29.7402H63.6914L61.3359 31.4629V31.7148H61.998V35.2832Z" fill="white"/>
<path fill-rule="evenodd" clip-rule="evenodd" d="M136.5 33C142.299 33 147 28.299 147 22.5C147 16.701 142.299 12 136.5 12C130.701 12 126 16.701 126 22.5C126 28.299 130.701 33 136.5 33ZM136.395 18.5273H137.525L137.514 25.752C137.508 26.3906 137.748 26.5898 138.645 26.7129V27H134.479V26.7129C135.369 26.5957 135.598 26.3906 135.598 25.752V19.8164L134.432 20.1797V19.9219C135.17 19.4824 135.85 18.9961 136.395 18.5273Z" fill="white"/>
</svg>
