<svg width="21" height="21" viewBox="0 0 21 21" fill="none" xmlns="http://www.w3.org/2000/svg">
<path fill-rule="evenodd" clip-rule="evenodd" d="M10.5 21C16.299 21 21 16.299 21 10.5C21 4.70101 16.299 0 10.5 0C4.70101 0 0 4.70101 0 10.5C0 16.299 4.70101 21 10.5 21ZM7.51758 13.207C7.51758 12.7148 7.875 12.3574 8.33789 12.3574C8.78906 12.3574 9.14648 12.7031 9.14648 13.1602C9.14648 13.6113 8.79492 13.957 8.35547 13.957C8.29688 13.957 8.23828 13.9512 8.17969 13.9395C8.46094 14.2852 8.92969 14.502 9.46875 14.502C10.4941 14.502 11.25 13.8457 11.25 12.7734C11.25 11.5957 10.3945 10.7871 8.88281 10.7812V10.4707C10.4473 10.2656 11.1152 9.67969 11.1152 8.90625C11.1152 8.18555 10.5762 7.70508 9.68555 7.70508C8.75391 7.70508 8.07422 8.13867 7.74023 8.80664V8.51367C7.99805 7.30078 9.05859 6.4043 10.5996 6.4043C12.0703 6.4043 13.0488 7.20703 13.0488 8.37305C13.0488 9.35742 12.2812 10.0312 11.1973 10.2129C12.4512 10.3828 13.2832 11.332 13.2832 12.5684C13.2832 14.2031 11.8066 15.1348 10.1777 15.1348C8.60156 15.1348 7.51758 14.2676 7.51758 13.207Z" fill="#555555"/>
</svg>
