<svg width="60" height="60" viewBox="0 0 60 60" fill="none" xmlns="http://www.w3.org/2000/svg">
<circle cx="30" cy="30" r="30" fill="#555555"/>
<path d="M36.5001 31.0833H31.0834V36.5C31.0834 37.0958 30.5959 37.5833 30.0001 37.5833C29.4042 37.5833 28.9167 37.0958 28.9167 36.5V31.0833H23.5001C22.9042 31.0833 22.4167 30.5958 22.4167 30C22.4167 29.4041 22.9042 28.9166 23.5001 28.9166H28.9167V23.5C28.9167 22.9041 29.4042 22.4166 30.0001 22.4166C30.5959 22.4166 31.0834 22.9041 31.0834 23.5V28.9166H36.5001C37.0959 28.9166 37.5834 29.4041 37.5834 30C37.5834 30.5958 37.0959 31.0833 36.5001 31.0833Z" fill="#F2F2F2"/>
</svg>
