<svg width="21" height="21" viewBox="0 0 21 21" fill="none" xmlns="http://www.w3.org/2000/svg">
<path fill-rule="evenodd" clip-rule="evenodd" d="M10.5 21C16.299 21 21 16.299 21 10.5C21 4.70101 16.299 0 10.5 0C4.70101 0 0 4.70101 0 10.5C0 16.299 4.70101 21 10.5 21ZM13.1484 13.4531L13.0664 15H7.76367V13.6992L8.625 12.8438C10.4531 11.2324 11.0273 10.3359 11.0273 9.27539C11.0273 8.32617 10.4414 7.70508 9.50391 7.70508C8.5957 7.70508 7.99805 8.19727 7.72852 8.86523V8.56055C7.95117 7.25977 8.97656 6.4043 10.5352 6.4043C12.0117 6.4043 13.0195 7.34766 13.0195 8.71875C13.0195 10.1543 12.0527 11.2031 9.84961 12.5859L8.45508 13.4648L13.1484 13.4531Z" fill="#555555" fill-opacity="0.2"/>
</svg>
